<svg width="835" height="200" viewBox="0 0 835 200" fill="none" xmlns="http://www.w3.org/2000/svg">
<mask id="mask0_409_1080" style="mask-type:luminance" maskUnits="userSpaceOnUse" x="0" y="0" width="200" height="200">
<path d="M200 0H0V200H200V0Z" fill="white"/>
</mask>
<g mask="url(#mask0_409_1080)">
<path d="M27.9997 84.88C27.1092 84.5105 26.1893 84.2161 25.2497 84C23.4197 83.57 21.5897 83.12 19.7397 82.74C17.8897 82.36 16.0597 82 14.1997 81.68C12.3397 81.36 10.4997 81.09 8.62974 80.9C7.76248 80.7806 6.88333 81.0107 6.1857 81.5395C5.48806 82.0684 5.02909 82.8527 4.90974 83.72C4.79039 84.5872 5.02045 85.4664 5.5493 86.164C6.07815 86.8616 6.86248 87.3206 7.72974 87.44C9.56974 87.76 11.4397 88 13.3097 88.2C15.1797 88.4 17.0397 88.56 18.9197 88.67C20.7997 88.78 22.6897 88.87 24.5697 88.96C25.5208 89.0113 26.4746 88.9778 27.4197 88.86C28.425 88.7676 29.4137 88.5423 30.3597 88.19C30.5498 88.1163 30.7158 87.9918 30.8397 87.83C31.008 87.5996 31.0792 87.3124 31.038 87.0301C30.9969 86.7477 30.8467 86.4928 30.6197 86.32C29.812 85.7293 28.9314 85.2453 27.9997 84.88Z" fill="black"/>
<path d="M45.9997 51.35C46.1631 51.2008 46.261 50.9932 46.2723 50.7723C46.2835 50.5514 46.2071 50.3349 46.0597 50.17C44.4487 48.4198 42.7034 46.7982 40.8397 45.32C39.0064 43.8533 37.1597 42.4133 35.2997 41C33.4397 39.56 31.5497 38.19 29.6597 36.8C27.7697 35.41 25.8697 34.08 23.9397 32.8L23.6797 32.64C23.24 32.3793 22.7527 32.2089 22.2464 32.1386C21.74 32.0682 21.2247 32.0995 20.7306 32.2304C20.2364 32.3614 19.7733 32.5894 19.3682 32.9012C18.9632 33.2131 18.6243 33.6025 18.3713 34.0467C18.1183 34.4909 17.9563 34.981 17.8948 35.4885C17.8332 35.996 17.8734 36.5107 18.0129 37.0025C18.1524 37.4943 18.3884 37.9534 18.7072 38.353C19.026 38.7526 19.4212 39.0847 19.8697 39.33C21.8697 40.49 23.9297 41.63 26.0097 42.7C28.0897 43.77 30.1497 44.88 32.2497 45.92C34.3497 46.96 36.4397 48 38.5697 49C40.7149 50.0206 42.9346 50.8764 45.2097 51.56C45.3486 51.5915 45.493 51.5888 45.6306 51.5523C45.7682 51.5157 45.8949 51.4463 45.9997 51.35Z" fill="black"/>
<path d="M67.7297 16.42C68.7997 18.19 69.9197 19.93 71.0497 21.67C72.2527 23.4535 73.704 25.0563 75.3597 26.43C75.5687 26.5906 75.8262 26.6752 76.0897 26.67C76.2368 26.6661 76.3817 26.6333 76.5161 26.5733C76.6505 26.5134 76.7718 26.4276 76.873 26.3208C76.9743 26.214 77.0534 26.0883 77.1061 25.9509C77.1587 25.8135 77.1837 25.6671 77.1797 25.52C77.0949 23.3705 76.6974 21.2449 75.9997 19.21C75.2997 17.26 74.5797 15.31 73.8097 13.39C72.3186 9.54222 70.6161 5.77982 68.7097 2.11998C68.2269 1.25475 67.429 0.608999 66.4821 0.317072C65.5353 0.0251445 64.5123 0.109517 63.6261 0.552638C62.7398 0.995759 62.0585 1.7635 61.724 2.69616C61.3894 3.62881 61.4273 4.65455 61.8297 5.55998C63.595 9.28581 65.5647 12.9113 67.7297 16.42Z" fill="black"/>
<path d="M121.12 26.43C122.512 24.8351 123.818 23.166 125.03 21.43C126.24 19.73 127.38 17.99 128.49 16.24C129.6 14.49 130.67 12.73 131.72 10.95C132.77 9.16998 133.72 7.35998 134.72 5.51998C135.176 4.60631 135.25 3.54884 134.927 2.58022C134.603 1.61159 133.908 0.811148 132.995 0.354976C132.081 -0.101196 131.024 -0.175731 130.055 0.147769C129.086 0.47127 128.286 1.16631 127.83 2.07998C126.91 3.92998 126.09 5.81998 125.28 7.71998C124.47 9.61998 123.73 11.55 123.01 13.49C122.29 15.43 121.57 17.38 120.95 19.37C120.306 21.3762 119.772 23.4159 119.35 25.48C119.306 25.6609 119.314 25.8503 119.372 26.0269C119.431 26.2036 119.537 26.3605 119.68 26.48C119.776 26.5736 119.891 26.6468 120.016 26.6951C120.142 26.7434 120.276 26.7659 120.41 26.7613C120.545 26.7566 120.677 26.7249 120.799 26.6679C120.921 26.611 121.03 26.5301 121.12 26.43Z" fill="black"/>
<path d="M173.81 38.08C174.198 37.7563 174.52 37.3592 174.755 36.9113C174.99 36.4635 175.135 35.9738 175.181 35.47C175.227 34.9662 175.173 34.4584 175.023 33.9754C174.872 33.4924 174.628 33.0437 174.305 32.655C173.981 32.2663 173.584 31.9451 173.136 31.7099C172.688 31.4746 172.199 31.3299 171.695 31.2839C171.191 31.238 170.683 31.2917 170.2 31.442C169.717 31.5923 169.268 31.8363 168.88 32.16C167.24 33.53 165.61 34.94 164.01 36.37C162.41 37.8 160.83 39.27 159.26 40.75C157.69 42.23 156.13 43.75 154.6 45.23C153.031 46.7727 151.596 48.4453 150.31 50.23C150.232 50.3427 150.183 50.4722 150.165 50.6079C150.148 50.7435 150.163 50.8814 150.21 51.01C150.288 51.2181 150.446 51.387 150.648 51.4805C150.85 51.574 151.08 51.5846 151.29 51.51C153.342 50.7351 155.326 49.7884 157.22 48.68C159.08 47.59 160.93 46.47 162.76 45.34C164.59 44.21 166.42 43.06 168.22 41.89C170.02 40.72 171.8 39.52 173.56 38.29L173.81 38.08Z" fill="black"/>
<path d="M194.82 80.85C194.68 80.4395 194.461 80.0605 194.175 79.7348C193.888 79.4091 193.541 79.143 193.152 78.9516C192.763 78.7603 192.34 78.6476 191.907 78.6198C191.474 78.5921 191.04 78.6499 190.63 78.79C188.75 79.44 186.9 80.17 185.06 80.94C183.22 81.71 181.4 82.5 179.59 83.34C177.78 84.18 175.98 85.05 174.18 85.92C173.268 86.3532 172.392 86.8582 171.56 87.43C170.679 87.9971 169.87 88.6686 169.15 89.43C168.987 89.5976 168.888 89.8169 168.87 90.05C168.853 90.195 168.866 90.342 168.908 90.4818C168.95 90.6217 169.02 90.7517 169.113 90.8638C169.207 90.976 169.322 91.0681 169.452 91.1344C169.582 91.2008 169.724 91.2401 169.87 91.25C170.922 91.3497 171.983 91.3228 173.03 91.17C174.044 91.0386 175.047 90.8314 176.03 90.55C177.95 90 179.88 89.47 181.78 88.88C183.68 88.29 185.58 87.68 187.46 87.03C189.34 86.38 191.14 85.73 193 85C193.776 84.6713 194.396 84.0584 194.735 83.2868C195.073 82.5151 195.104 81.6433 194.82 80.85Z" fill="black"/>
<path d="M133.86 45.61C131.17 43.8662 128.344 42.3413 125.41 41.05C122.487 39.8015 119.48 38.7622 116.41 37.94C113.356 37.1637 110.257 36.5826 107.13 36.2C105.58 36.06 104.02 35.86 102.47 35.82L100.14 35.72H97.7197C91.3039 35.8969 84.9546 37.071 78.8997 39.2C72.8073 41.3491 67.1008 44.4657 61.9997 48.43C56.8604 52.4473 52.516 57.3886 49.1897 63C47.5541 65.8114 46.188 68.7713 45.1097 71.84C44.0836 74.8897 43.3175 78.0209 42.8197 81.2C41.8645 87.4688 41.9253 93.8505 42.9997 100.1C44.1381 106.307 46.4056 112.252 49.6897 117.64C52.8868 122.878 56.9436 127.54 61.6897 131.43C66.3506 135.283 71.6554 138.282 77.3597 140.29C82.7145 142.07 88.3948 142.654 93.9997 142C96.4565 141.779 98.8832 141.299 101.24 140.57C105.767 139.002 109.974 136.631 113.66 133.57C117.379 130.524 120.598 126.913 123.2 122.87C125.905 118.718 127.764 114.072 128.67 109.2C129.126 106.66 129.227 104.068 128.97 101.5C128.709 98.8736 128.034 96.3052 126.97 93.89C125.894 91.4905 124.465 89.2657 122.73 87.29C120.859 85.1049 118.484 83.4092 115.81 82.35C113.024 81.3074 109.991 81.1229 107.1 81.82C104.86 82.3762 102.734 83.3205 100.82 84.61C99.2809 82.8429 97.4718 81.3308 95.4597 80.13C94.2669 79.4408 92.9849 78.9192 91.6497 78.58C90.3441 78.2289 89.0013 78.0342 87.6497 78C84.9223 77.902 82.2146 78.4972 79.7797 79.73C77.3064 80.9738 75.2441 82.9042 73.8397 85.29C72.461 87.6426 71.7682 90.3341 71.8397 93.06C71.9184 95.6357 72.535 98.1666 73.6497 100.49C74.7468 102.729 76.2256 104.759 78.0197 106.49C79.7157 108.105 81.5456 109.574 83.4897 110.88C85.3697 112.17 87.2797 113.35 89.0397 114.65C90.8267 115.868 92.3614 117.42 93.5597 119.22C94.1177 120.142 94.5008 121.159 94.6897 122.22C94.8399 123.325 94.8399 124.445 94.6897 125.55C95.0381 124.457 95.2169 123.317 95.2197 122.17C95.1948 120.989 94.9507 119.822 94.4997 118.73C93.5091 116.586 92.0781 114.674 90.2997 113.12C86.9597 109.93 83.2997 107.31 80.5897 104.12C79.2641 102.575 78.2214 100.808 77.5097 98.9C76.8388 97.0772 76.5296 95.1411 76.5997 93.2C76.7041 91.3422 77.305 89.5464 78.3397 88C79.3281 86.547 80.6889 85.3865 82.2797 84.64C83.9102 83.902 85.6919 83.5594 87.4797 83.64C89.2706 83.7158 91.0196 84.2052 92.5897 85.07C94.0157 85.9491 95.3202 87.0115 96.4697 88.23C95.7553 88.9889 95.0874 89.7904 94.4697 90.63C92.8835 92.7111 91.6875 95.0624 90.9397 97.57C90.5182 99.0099 90.3957 100.521 90.5797 102.01C90.703 102.885 90.9879 103.729 91.4197 104.5C91.8831 105.287 92.5065 105.969 93.2497 106.5C94.554 107.467 96.1096 108.036 97.7297 108.14C99.4104 108.21 101.068 107.729 102.45 106.77C103.696 105.893 104.722 104.739 105.45 103.4C106.148 102.132 106.603 100.745 106.79 99.31C106.978 97.8899 106.913 96.4477 106.6 95.05C106.304 93.7726 105.885 92.5267 105.35 91.33C105.13 90.85 104.89 90.33 104.64 89.91C105.855 89.2921 107.162 88.8734 108.51 88.67C110.05 88.4373 111.625 88.6489 113.05 89.28C114.534 89.9728 115.838 90.9995 116.86 92.28C118.061 93.7127 119.069 95.2961 119.86 96.99C121.449 100.457 122.071 104.289 121.66 108.08C121.158 112.125 119.899 116.04 117.95 119.62C110.6 133.81 94.0797 141.7 79.6097 134.68C74.9309 132.355 70.71 129.204 67.1497 125.38C63.638 121.643 60.7298 117.382 58.5297 112.75C56.442 108.25 55.1884 103.408 54.8297 98.46C54.5934 93.5894 55.1129 88.7115 56.3697 84C57.6168 79.3919 59.5736 75.0061 62.1697 71C64.713 67.0253 67.8803 63.4866 71.5497 60.52C75.3048 57.5395 79.5109 55.1765 84.0097 53.52C88.5468 51.8834 93.3099 50.9591 98.1297 50.78H99.9297L101.8 50.83C103.05 50.83 104.28 50.98 105.53 51.05C107.979 51.3062 110.41 51.7103 112.81 52.26C122.349 54.3499 130.867 59.6875 136.908 67.3606C142.948 75.0338 146.137 84.5665 145.93 94.33C145.806 104.359 142.516 114.092 136.53 122.14C133.513 126.208 129.972 129.859 126 133C123.98 134.614 121.874 136.117 119.69 137.5C117.499 138.883 115.232 140.142 112.9 141.27C107.934 143.478 102.841 145.392 97.6497 147C92.3197 148.8 86.8297 150.5 81.3597 153.31C78.3328 154.74 75.6359 156.783 73.4397 159.31C72.1735 160.83 71.295 162.635 70.8797 164.57C70.6346 165.687 70.5973 166.84 70.7697 167.97C70.968 169.168 71.4253 170.307 72.1097 171.31C72.8602 172.362 73.7912 173.273 74.8597 174C74.2626 175.397 73.9858 176.909 74.0498 178.427C74.1139 179.945 74.517 181.429 75.2297 182.77C76.0133 184.237 77.0034 185.584 78.1697 186.77C78.7219 187.353 79.3097 187.9 79.9297 188.41C80.3697 188.76 80.8397 189.07 81.3097 189.41C80.8531 190.035 80.4611 190.705 80.1397 191.41C79.4366 192.919 79.2674 194.622 79.6597 196.24C79.8836 196.99 80.2208 197.702 80.6597 198.35C81.0723 198.958 81.5594 199.513 82.1097 200C81.4996 198.789 81.2039 197.445 81.2497 196.09C81.3451 194.895 81.8219 193.763 82.6097 192.86C83.1306 192.224 83.7363 191.662 84.4097 191.19C86.2907 192.137 88.2601 192.898 90.2897 193.46C93.1782 194.252 96.1404 194.745 99.1297 194.93C102.158 195.153 105.202 195.022 108.2 194.54C108.97 194.4 109.75 194.23 110.57 194C111.487 193.743 112.37 193.377 113.2 192.91C113.885 192.525 114.481 192 114.95 191.37C115.381 190.783 115.654 190.094 115.74 189.37C115.782 188.918 115.748 188.461 115.64 188.02C115.622 187.918 115.595 187.817 115.56 187.72L115.5 187.53C115.171 186.5 114.67 185.533 114.02 184.67C112.762 183.119 111.111 181.935 109.24 181.24C107.637 180.633 105.951 180.273 104.24 180.17C101.116 179.959 97.9793 180.273 94.9597 181.1C92.0008 181.87 89.1731 183.077 86.5697 184.68C85.9197 185.09 85.2797 185.54 84.6597 186.02L84.4597 185.9C83.473 185.195 82.5555 184.398 81.7197 183.52C80.9527 182.671 80.3249 181.706 79.8597 180.66C79.5437 180.007 79.3795 179.291 79.3795 178.565C79.3795 177.839 79.5437 177.123 79.8597 176.47C80.3397 176.63 80.8597 176.78 81.3097 176.92C84.254 177.726 87.2671 178.255 90.3097 178.5C96.2468 179.012 102.226 178.706 108.08 177.59C111.24 177.046 114.309 176.067 117.2 174.68C118.116 174.218 118.975 173.651 119.76 172.99C120.002 172.783 120.233 172.563 120.45 172.33C120.708 172.062 120.945 171.774 121.16 171.47C121.418 171.119 121.642 170.744 121.83 170.35C122.227 169.492 122.428 168.556 122.42 167.61C122.446 167.277 122.446 166.943 122.42 166.61C122.341 165.865 122.149 165.137 121.85 164.45C121.292 163.158 120.41 162.032 119.29 161.18C118.414 160.516 117.443 159.986 116.41 159.61C115.545 159.289 114.656 159.042 113.75 158.87C112.131 158.567 110.487 158.417 108.84 158.42C105.786 158.422 102.74 158.733 99.7497 159.35C93.827 160.461 88.1424 162.592 82.9497 165.65C81.5874 166.489 80.2964 167.439 79.0897 168.49C78.6486 168.234 78.2614 167.894 77.9497 167.49C77.7197 167.06 77.6797 166.92 77.8297 166.17C78.03 165.327 78.4314 164.544 78.9997 163.89C80.6302 162.299 82.5703 161.06 84.6997 160.25C89.7494 158.344 94.9251 156.79 100.19 155.6C105.848 154.283 111.424 152.637 116.89 150.67C119.701 149.556 122.44 148.267 125.09 146.81C127.753 145.366 130.318 143.75 132.77 141.97C137.752 138.368 142.205 134.087 146 129.25C149.845 124.333 152.914 118.856 155.1 113.01C157.285 107.115 158.527 100.912 158.78 94.63C159.351 81.7792 155.504 69.1203 147.88 58.76C144.035 53.5698 139.285 49.1153 133.86 45.61ZM101.65 98.76C101.613 99.5344 101.412 100.292 101.058 100.982C100.704 101.672 100.207 102.278 99.5997 102.76C99.0978 103.12 98.4867 103.295 97.8704 103.255C97.2541 103.214 96.6707 102.962 96.2197 102.54C96.0496 102.393 95.912 102.212 95.8155 102.009C95.7191 101.806 95.6661 101.585 95.6597 101.36C95.6182 100.595 95.7339 99.8289 95.9997 99.11C96.6754 97.3318 97.6948 95.7041 98.9997 94.32C99.3592 93.9105 99.7397 93.52 100.14 93.15C100.24 93.33 100.35 93.51 100.44 93.69C100.859 94.5315 101.194 95.4125 101.44 96.32C101.658 97.1137 101.729 97.9406 101.65 98.76ZM109.86 187.45C110 187.35 109.93 187.42 109.86 187.45ZM103.64 186.58C104.73 186.705 105.801 186.96 106.83 187.34C107.35 187.537 107.839 187.81 108.28 188.15C107.86 188.3 107.41 188.43 106.95 188.55C101.87 189.752 96.5885 189.82 91.4797 188.75C90.9897 188.64 90.4797 188.51 90.0397 188.37C94.3941 186.813 99.0307 186.202 103.64 186.58ZM114.17 167.51C114.28 167.64 114.17 167.63 114.17 167.51ZM100.92 166.44C103.457 166.087 106.021 165.97 108.58 166.09C109.739 166.146 110.891 166.311 112.02 166.58C112.479 166.689 112.928 166.84 113.36 167.03C112.326 167.512 111.252 167.903 110.15 168.2C108.97 168.54 107.72 168.84 106.45 169.09C101.268 170.075 96.0045 170.57 90.7297 170.57C89.5097 170.57 88.2897 170.57 87.0997 170.42C91.4758 168.394 96.1367 167.052 100.92 166.44Z" fill="black"/>
</g>
<path d="M290.562 77.5625C287.646 77.5625 285.042 78.1875 282.75 79.4375C280.458 80.6458 278.5 82.4167 276.875 84.75C275.25 87.0833 274 89.9375 273.125 93.3125C272.292 96.6458 271.875 100.438 271.875 104.688C271.875 110.438 272.604 115.271 274.062 119.188C275.521 123.104 277.729 126.062 280.688 128.062C283.688 130.062 287.438 131.062 291.938 131.062C296.021 131.062 299.938 130.5 303.688 129.375C307.479 128.25 311.292 126.896 315.125 125.312V146.188C311.083 147.979 306.938 149.271 302.688 150.062C298.479 150.854 294 151.25 289.25 151.25C279.333 151.25 271.208 149.292 264.875 145.375C258.583 141.417 253.938 135.938 250.938 128.938C247.979 121.938 246.5 113.812 246.5 104.562C246.5 97.6458 247.458 91.3125 249.375 85.5625C251.333 79.8125 254.188 74.8333 257.938 70.625C261.688 66.375 266.312 63.1042 271.812 60.8125C277.354 58.4792 283.688 57.3125 290.812 57.3125C295.229 57.3125 299.875 57.8333 304.75 58.875C309.667 59.875 314.458 61.5 319.125 63.75L311.562 83.1875C308.229 81.6042 304.854 80.2708 301.438 79.1875C298.021 78.1042 294.396 77.5625 290.562 77.5625ZM356 150H331.562V52.75H356V150ZM407.5 77.9375C416.458 77.9375 423.458 80.1667 428.5 84.625C433.542 89.0417 436.062 95.3542 436.062 103.562V150H419.125L414.438 140.625H413.938C411.938 143.125 409.875 145.167 407.75 146.75C405.667 148.292 403.271 149.417 400.562 150.125C397.854 150.875 394.542 151.25 390.625 151.25C386.542 151.25 382.875 150.417 379.625 148.75C376.375 147.083 373.812 144.562 371.938 141.188C370.062 137.812 369.125 133.542 369.125 128.375C369.125 120.792 371.75 115.167 377 111.5C382.25 107.833 389.854 105.771 399.812 105.312L411.625 104.938V103.938C411.625 100.771 410.833 98.5208 409.25 97.1875C407.708 95.8542 405.625 95.1875 403 95.1875C400.208 95.1875 397.083 95.6875 393.625 96.6875C390.208 97.6458 386.771 98.8958 383.312 100.438L376.25 84.3125C380.333 82.2292 384.958 80.6458 390.125 79.5625C395.292 78.4792 401.083 77.9375 407.5 77.9375ZM411.75 118.375L406.125 118.625C401.625 118.792 398.458 119.583 396.625 121C394.833 122.375 393.938 124.354 393.938 126.938C393.938 129.354 394.583 131.146 395.875 132.312C397.167 133.438 398.875 134 401 134C403.958 134 406.479 133.062 408.562 131.188C410.688 129.312 411.75 126.875 411.75 123.875V118.375ZM505.312 128.25C505.312 132.75 504.312 136.729 502.312 140.188C500.312 143.646 497.104 146.354 492.688 148.312C488.312 150.271 482.542 151.25 475.375 151.25C470.333 151.25 465.812 150.979 461.812 150.438C457.854 149.896 453.833 148.854 449.75 147.312V127.75C454.208 129.792 458.75 131.271 463.375 132.188C468 133.062 471.646 133.5 474.312 133.5C477.062 133.5 479.062 133.208 480.312 132.625C481.604 132 482.25 131.083 482.25 129.875C482.25 128.833 481.812 127.958 480.938 127.25C480.104 126.5 478.583 125.646 476.375 124.688C474.208 123.729 471.146 122.438 467.188 120.812C463.271 119.188 460 117.417 457.375 115.5C454.792 113.583 452.854 111.292 451.562 108.625C450.271 105.958 449.625 102.688 449.625 98.8125C449.625 91.8958 452.292 86.6875 457.625 83.1875C462.958 79.6875 470.021 77.9375 478.812 77.9375C483.479 77.9375 487.875 78.4583 492 79.5C496.125 80.5 500.396 81.9792 504.812 83.9375L498.125 99.6875C494.625 98.1042 491.083 96.8333 487.5 95.875C483.917 94.9167 481.062 94.4375 478.938 94.4375C477.021 94.4375 475.542 94.6875 474.5 95.1875C473.458 95.6875 472.938 96.4167 472.938 97.375C472.938 98.25 473.292 99.0208 474 99.6875C474.75 100.354 476.146 101.125 478.188 102C480.229 102.875 483.208 104.104 487.125 105.688C491.25 107.354 494.646 109.146 497.312 111.062C500.021 112.938 502.021 115.229 503.312 117.938C504.646 120.646 505.312 124.083 505.312 128.25ZM571.562 128.25C571.562 132.75 570.562 136.729 568.562 140.188C566.562 143.646 563.354 146.354 558.938 148.312C554.562 150.271 548.792 151.25 541.625 151.25C536.583 151.25 532.062 150.979 528.062 150.438C524.104 149.896 520.083 148.854 516 147.312V127.75C520.458 129.792 525 131.271 529.625 132.188C534.25 133.062 537.896 133.5 540.562 133.5C543.312 133.5 545.312 133.208 546.562 132.625C547.854 132 548.5 131.083 548.5 129.875C548.5 128.833 548.062 127.958 547.188 127.25C546.354 126.5 544.833 125.646 542.625 124.688C540.458 123.729 537.396 122.438 533.438 120.812C529.521 119.188 526.25 117.417 523.625 115.5C521.042 113.583 519.104 111.292 517.812 108.625C516.521 105.958 515.875 102.688 515.875 98.8125C515.875 91.8958 518.542 86.6875 523.875 83.1875C529.208 79.6875 536.271 77.9375 545.062 77.9375C549.729 77.9375 554.125 78.4583 558.25 79.5C562.375 80.5 566.646 81.9792 571.062 83.9375L564.375 99.6875C560.875 98.1042 557.333 96.8333 553.75 95.875C550.167 94.9167 547.312 94.4375 545.188 94.4375C543.271 94.4375 541.792 94.6875 540.75 95.1875C539.708 95.6875 539.188 96.4167 539.188 97.375C539.188 98.25 539.542 99.0208 540.25 99.6875C541 100.354 542.396 101.125 544.438 102C546.479 102.875 549.458 104.104 553.375 105.688C557.5 107.354 560.896 109.146 563.562 111.062C566.271 112.938 568.271 115.229 569.562 117.938C570.896 120.646 571.562 124.083 571.562 128.25ZM616.562 58.625C624.854 58.625 631.75 59.6458 637.25 61.6875C642.75 63.6875 646.875 66.6875 649.625 70.6875C652.417 74.6875 653.812 79.6667 653.812 85.625C653.812 89.3333 653.188 92.7083 651.938 95.75C650.688 98.7917 648.896 101.521 646.562 103.938C644.271 106.312 641.521 108.396 638.312 110.188L664.938 150H636.938L617.562 116.75H611.312V150H586.625V58.625H616.562ZM616.188 77.3125H611.312V98.1875H615.938C619.729 98.1875 622.833 97.3542 625.25 95.6875C627.667 94.0208 628.875 91.0417 628.875 86.75C628.875 83.7917 627.875 81.4792 625.875 79.8125C623.875 78.1458 620.646 77.3125 616.188 77.3125ZM740.688 79.1875V150H722.25L719.188 141.188H717.75C716.292 143.562 714.438 145.5 712.188 147C709.979 148.458 707.521 149.521 704.812 150.188C702.104 150.896 699.292 151.25 696.375 151.25C691.75 151.25 687.562 150.354 683.812 148.562C680.104 146.771 677.146 143.958 674.938 140.125C672.771 136.292 671.688 131.354 671.688 125.312V79.1875H696.125V117.875C696.125 122.458 696.771 125.958 698.062 128.375C699.396 130.75 701.562 131.938 704.562 131.938C707.646 131.938 710.021 131.104 711.688 129.438C713.396 127.771 714.583 125.312 715.25 122.062C715.917 118.812 716.25 114.854 716.25 110.188V79.1875H740.688ZM801.875 77.9375C809.167 77.9375 815.125 80 819.75 84.125C824.375 88.25 826.688 94.8542 826.688 103.938V150H802.25V111.375C802.25 106.667 801.562 103.125 800.188 100.75C798.854 98.3333 796.688 97.125 793.688 97.125C789.062 97.125 785.958 99.0208 784.375 102.812C782.792 106.562 782 111.958 782 119V150H757.562V79.1875H776L779.312 88.5625H780.25C781.75 86.3125 783.542 84.3958 785.625 82.8125C787.708 81.2292 790.104 80.0208 792.812 79.1875C795.521 78.3542 798.542 77.9375 801.875 77.9375Z" fill="black"/>
</svg>
